<svg xmlns="http://www.w3.org/2000/svg" xmlns:xlink="http://www.w3.org/1999/xlink" width="139" zoomAndPan="magnify" viewBox="0 0 104.25 103.499997" height="138" preserveAspectRatio="xMidYMid meet" version="1.2"><defs><clipPath id="dd87c8f0b1"><path d="M 0 0.121094 L 103.503906 0.121094 L 103.503906 102.882812 L 0 102.882812 Z M 0 0.121094 "/></clipPath></defs><g id="32de6d96ab"><g clip-rule="nonzero" clip-path="url(#dd87c8f0b1)"><path style=" stroke:none;fill-rule:nonzero;fill:#bc9c22;fill-opacity:1;" d="M 103.292969 51.339844 C 103.292969 43.839844 99.367188 37.238281 93.464844 33.484375 C 93.796875 31.984375 93.96875 30.4375 93.96875 28.859375 C 93.96875 17.199219 84.480469 7.714844 72.824219 7.714844 C 71.394531 7.714844 69.984375 7.859375 68.609375 8.136719 C 64.730469 3.269531 58.753906 0.144531 52.0625 0.144531 C 46.429688 0.144531 41.117188 2.394531 37.101562 6.484375 C 36.300781 7.296875 35.574219 8.164062 34.921875 9.070312 C 33.472656 8.757812 31.980469 8.59375 30.472656 8.59375 C 18.8125 8.59375 9.328125 18.082031 9.328125 29.738281 C 9.328125 31.046875 9.441406 32.332031 9.671875 33.585938 C 3.855469 37.359375 0 43.90625 0 51.339844 C 0 58.945312 4.039062 65.628906 10.082031 69.351562 C 9.800781 70.742188 9.652344 72.171875 9.652344 73.628906 C 9.652344 85.289062 19.140625 94.773438 30.800781 94.773438 C 32.285156 94.773438 33.777344 94.601562 35.238281 94.269531 C 39.101562 99.34375 45.207031 102.621094 52.0625 102.621094 C 58.929688 102.621094 65.042969 99.332031 68.90625 94.242188 C 70.433594 94.59375 71.996094 94.773438 73.570312 94.773438 C 85.230469 94.773438 94.714844 85.289062 94.714844 73.628906 C 94.714844 71.972656 94.519531 70.332031 94.140625 68.746094 C 99.667969 64.929688 103.292969 58.550781 103.292969 51.339844 Z M 72.824219 8.484375 C 84.058594 8.484375 93.199219 17.625 93.199219 28.859375 C 93.199219 30.289062 93.050781 31.695312 92.765625 33.0625 C 89.644531 31.238281 86.015625 30.195312 82.148438 30.195312 C 82.101562 30.195312 81.925781 30.183594 81.742188 30.175781 C 81.707031 30.171875 81.671875 30.171875 81.636719 30.167969 C 79.277344 26.855469 76.445312 23.980469 73.203125 21.617188 C 73.207031 21.507812 73.207031 21.398438 73.207031 21.289062 C 73.207031 16.632812 71.691406 12.320312 69.128906 8.824219 C 70.335938 8.601562 71.574219 8.484375 72.824219 8.484375 Z M 87.089844 43.40625 L 87.066406 43.410156 C 87.066406 43.414062 87.066406 43.421875 87.070312 43.425781 C 87.066406 43.429688 87.066406 43.429688 87.0625 43.429688 L 87.070312 43.4375 C 87.691406 46.105469 87.746094 48.917969 87.746094 51.339844 C 87.746094 53.71875 87.507812 56.097656 87.042969 58.414062 L 87.199219 58.441406 L 87.179688 58.464844 C 90.15625 61.136719 92.253906 64.609375 93.261719 68.410156 C 90.0625 70.5 86.246094 71.714844 82.148438 71.714844 C 82.058594 71.714844 81.910156 71.722656 81.753906 71.726562 C 81.558594 71.734375 81.335938 71.742188 81.230469 71.738281 L 81.226562 71.90625 C 78.8125 75.324219 75.84375 78.269531 72.410156 80.65625 L 72.4375 80.699219 C 72.4375 80.816406 72.4375 81.097656 72.4375 81.289062 L 72.4375 81.476562 C 72.4375 85.914062 71.011719 90.027344 68.589844 93.375 C 64.394531 92.3125 60.539062 89.9375 57.738281 86.589844 L 57.734375 86.59375 L 57.734375 86.574219 C 55.871094 86.871094 53.964844 87.023438 52.0625 87.023438 C 49.808594 87.023438 47.441406 86.707031 46.230469 86.519531 L 46.160156 86.976562 C 43.308594 90.144531 39.550781 92.390625 35.550781 93.402344 C 33.121094 90.046875 31.6875 85.925781 31.6875 81.476562 C 31.6875 81.359375 31.703125 81.328125 31.734375 81.253906 C 31.773438 81.15625 31.828125 81.027344 31.847656 80.804688 L 31.871094 80.765625 C 28.324219 78.328125 25.277344 75.304688 22.808594 71.777344 L 22.535156 71.96875 L 22.515625 71.671875 C 22.0625 71.699219 21.601562 71.714844 21.144531 71.714844 C 17.433594 71.714844 13.953125 70.71875 10.953125 68.976562 C 11.839844 65.132812 13.835938 61.636719 16.78125 58.839844 L 16.527344 58.570312 L 17.089844 58.457031 C 16.621094 56.132812 16.378906 53.738281 16.378906 51.339844 L 16.378906 50.652344 C 16.375 48.632812 16.371094 46.339844 16.695312 44.519531 L 16.390625 44.464844 C 13.367188 41.574219 11.359375 37.945312 10.527344 33.957031 C 13.621094 32.058594 17.257812 30.964844 21.144531 30.964844 C 21.570312 30.964844 22 30.980469 22.421875 31.003906 L 22.425781 30.9375 L 22.667969 31.105469 C 25.128906 27.539062 28.175781 24.480469 31.730469 22.011719 L 31.589844 21.808594 C 31.636719 21.734375 31.660156 21.648438 31.667969 21.574219 L 31.671875 21.574219 C 31.671875 21.570312 31.671875 21.566406 31.671875 21.5625 C 31.675781 21.527344 31.675781 21.496094 31.679688 21.472656 L 31.6875 21.355469 L 31.671875 21.355469 C 31.714844 17.238281 32.96875 13.296875 35.257812 9.9375 C 39.132812 10.875 42.6875 12.941406 45.4375 15.914062 L 45.5 16.261719 C 47.648438 15.859375 49.859375 15.660156 52.0625 15.660156 C 53.832031 15.660156 55.675781 15.78125 57.246094 16.003906 L 57.292969 15.667969 C 60.179688 12.277344 64.042969 9.960938 68.296875 8.992188 C 70.894531 12.414062 72.4375 16.675781 72.4375 21.289062 C 72.4375 21.417969 72.4375 21.542969 72.433594 21.667969 L 72.4375 21.667969 L 72.277344 21.894531 C 75.75 24.34375 78.757812 27.378906 81.226562 30.914062 L 81.226562 30.917969 C 81.230469 30.921875 81.230469 30.921875 81.230469 30.921875 C 81.289062 30.921875 81.535156 30.933594 81.699219 30.945312 C 81.9375 30.957031 82.089844 30.964844 82.148438 30.964844 C 85.960938 30.964844 89.53125 32.019531 92.585938 33.847656 C 91.6875 37.445312 89.8125 40.734375 87.089844 43.40625 Z M 37.648438 7.023438 C 41.519531 3.085938 46.636719 0.914062 52.0625 0.914062 C 58.375 0.914062 64.027344 3.800781 67.769531 8.324219 C 63.5 9.375 59.628906 11.738281 56.71875 15.15625 C 55.261719 14.984375 53.632812 14.886719 52.0625 14.886719 C 50.027344 14.886719 47.992188 15.058594 46 15.390625 C 43.21875 12.382812 39.640625 10.269531 35.734375 9.265625 C 36.316406 8.480469 36.953125 7.730469 37.648438 7.023438 Z M 10.097656 29.742188 C 10.097656 18.503906 19.238281 9.363281 30.472656 9.363281 C 31.816406 9.363281 33.148438 9.5 34.445312 9.757812 C 32.140625 13.25 30.902344 17.328125 30.902344 21.574219 L 30.902344 21.660156 C 27.582031 24.027344 24.707031 26.90625 22.34375 30.230469 C 21.945312 30.207031 21.542969 30.195312 21.144531 30.195312 C 17.214844 30.195312 13.535156 31.273438 10.378906 33.148438 C 10.191406 32.035156 10.097656 30.894531 10.097656 29.742188 Z M 0.769531 51.339844 C 0.769531 44.285156 4.375 38.058594 9.835938 34.402344 C 10.730469 38.417969 12.785156 42.078125 15.839844 45.003906 C 15.601562 46.769531 15.605469 48.820312 15.609375 50.65625 L 15.609375 51.339844 C 15.609375 53.683594 15.835938 56.027344 16.277344 58.308594 L 16.253906 58.28125 C 13.257812 61.125 11.210938 64.664062 10.261719 68.558594 C 4.5625 64.941406 0.769531 58.574219 0.769531 51.339844 Z M 30.800781 94.003906 C 19.566406 94.003906 10.425781 84.863281 10.425781 73.628906 C 10.425781 72.316406 10.546875 71.027344 10.785156 69.769531 C 13.851562 71.5 17.382812 72.488281 21.144531 72.488281 C 21.542969 72.488281 21.945312 72.472656 22.34375 72.449219 C 24.726562 75.800781 27.628906 78.699219 30.976562 81.078125 C 30.945312 81.171875 30.917969 81.296875 30.917969 81.476562 C 30.917969 85.980469 32.332031 90.15625 34.738281 93.589844 C 33.4375 93.859375 32.117188 94.003906 30.800781 94.003906 Z M 52.0625 101.851562 C 45.574219 101.851562 39.785156 98.804688 36.050781 94.066406 C 40.125 92.96875 43.9375 90.640625 46.828125 87.386719 C 48.152344 87.570312 50.144531 87.792969 52.0625 87.792969 C 53.855469 87.792969 55.65625 87.660156 57.421875 87.402344 C 60.230469 90.625 63.996094 92.933594 68.09375 94.039062 C 64.359375 98.792969 58.5625 101.851562 52.0625 101.851562 Z M 93.945312 73.628906 C 93.945312 84.863281 84.804688 94.003906 73.570312 94.003906 C 72.167969 94.003906 70.769531 93.851562 69.402344 93.5625 C 71.800781 90.136719 73.207031 85.96875 73.207031 81.476562 L 73.207031 81.292969 C 73.207031 81.214844 73.207031 81.125 73.207031 81.035156 C 76.515625 78.675781 79.386719 75.804688 81.75 72.496094 C 81.757812 72.496094 81.769531 72.496094 81.777344 72.496094 C 81.925781 72.492188 82.0625 72.488281 82.148438 72.488281 C 86.304688 72.488281 90.183594 71.28125 93.453125 69.203125 C 93.777344 70.644531 93.945312 72.128906 93.945312 73.628906 Z M 93.933594 67.953125 C 92.886719 64.195312 90.808594 60.761719 87.890625 58.074219 C 88.304688 55.867188 88.515625 53.605469 88.515625 51.339844 C 88.515625 48.996094 88.464844 46.292969 87.910156 43.671875 C 90.523438 41.015625 92.347656 37.792969 93.273438 34.277344 C 98.839844 37.917969 102.523438 44.207031 102.523438 51.339844 C 102.523438 58.1875 99.128906 64.257812 93.933594 67.953125 Z M 93.933594 67.953125 "/></g><g style="fill:#f6f6f5;fill-opacity:1;"><g transform="translate(26.939829, 62.331814)"><path style="stroke:none" d="M 14.109375 0.65625 C 12.453125 0.65625 10.90625 0.34375 9.46875 -0.28125 C 8.039062 -0.90625 6.796875 -1.757812 5.734375 -2.84375 C 4.671875 -3.925781 3.832031 -5.203125 3.21875 -6.671875 C 2.601562 -8.148438 2.296875 -9.753906 2.296875 -11.484375 C 2.296875 -13.210938 2.601562 -14.816406 3.21875 -16.296875 C 3.832031 -17.773438 4.675781 -19.054688 5.75 -20.140625 C 6.820312 -21.222656 8.070312 -22.078125 9.5 -22.703125 C 10.9375 -23.328125 12.472656 -23.640625 14.109375 -23.640625 C 15.378906 -23.640625 16.523438 -23.488281 17.546875 -23.1875 C 18.566406 -22.894531 19.425781 -22.570312 20.125 -22.21875 C 20.957031 -21.832031 21.691406 -21.375 22.328125 -20.84375 L 22.328125 -16.25 L 21.828125 -16.25 L 21.5 -17.5625 C 21.320312 -18.175781 21.023438 -18.796875 20.609375 -19.421875 C 20.203125 -20.046875 19.679688 -20.609375 19.046875 -21.109375 C 18.410156 -21.609375 17.675781 -22.015625 16.84375 -22.328125 C 16.007812 -22.648438 15.097656 -22.8125 14.109375 -22.8125 C 12.992188 -22.8125 11.929688 -22.566406 10.921875 -22.078125 C 9.921875 -21.585938 9.035156 -20.863281 8.265625 -19.90625 C 7.503906 -18.957031 6.894531 -17.773438 6.4375 -16.359375 C 5.976562 -14.953125 5.75 -13.328125 5.75 -11.484375 C 5.75 -9.648438 5.976562 -8.023438 6.4375 -6.609375 C 6.894531 -5.203125 7.503906 -4.019531 8.265625 -3.0625 C 9.035156 -2.113281 9.921875 -1.394531 10.921875 -0.90625 C 11.929688 -0.414062 12.992188 -0.171875 14.109375 -0.171875 C 15.097656 -0.171875 15.988281 -0.3125 16.78125 -0.59375 C 17.582031 -0.875 18.289062 -1.257812 18.90625 -1.75 C 19.519531 -2.25 20.046875 -2.828125 20.484375 -3.484375 C 20.921875 -4.140625 21.257812 -4.835938 21.5 -5.578125 L 21.828125 -6.5625 L 22.328125 -6.5625 L 22.328125 -2.140625 C 21.691406 -1.585938 20.957031 -1.113281 20.125 -0.71875 C 19.425781 -0.375 18.566406 -0.0625 17.546875 0.21875 C 16.523438 0.507812 15.378906 0.65625 14.109375 0.65625 Z M 14.109375 0.65625 "/></g></g><g style="fill:#f6f6f5;fill-opacity:1;"><g transform="translate(52.213143, 62.331814)"><path style="stroke:none" d="M 3.078125 -20.1875 C 2.796875 -20.84375 2.476562 -21.332031 2.125 -21.65625 C 1.78125 -21.988281 1.238281 -22.15625 0.5 -22.15625 L -0.328125 -22.15625 L -0.328125 -22.984375 L 7.875 -22.984375 L 7.875 -22.15625 L 5.75 -22.15625 L 13.296875 -3.9375 L 20.1875 -22.15625 L 17.5 -22.15625 L 17.5 -22.984375 L 24.453125 -22.984375 L 24.453125 -22.15625 L 23.140625 -22.15625 C 22.398438 -22.15625 21.8125 -21.960938 21.375 -21.578125 C 20.9375 -21.203125 20.597656 -20.6875 20.359375 -20.03125 L 12.640625 0.5 L 11.65625 0.5 Z M 3.078125 -20.1875 "/></g></g></g></svg>